# xmcd
#
# Track frame offsets: 
#        150
#        13286
#        26650
#        44613
#        56179
#        69039
#        79923
#        92311
#        106173
#        121318
#        137041
#        150981
#
# Disc length: 2181 seconds
#
# Revision: 3
# Processed by: cddbd v1.5.2PL0 Copyright (c) Steve Scherf et al.
# Submitted via: ExactAudioCopy v0.99pb5
#
DISCID=9308830c
DTITLE=Loretta Goggi - I Grandi Successi Originali CD2
DYEAR=2002
DGENRE=Pop
TTITLE0=Un pomeriggio con te
TTITLE1=Chì salta il fosso
TTITLE2=Mettiamo che tu
TTITLE3=Ciao settembre
TTITLE4=Yeah!
TTITLE5=Na na na
TTITLE6=Dolce e triste
TTITLE7=Come amico
TTITLE8=Il cuscino
TTITLE9=Fio maravilha
TTITLE10=Ti chiedo scusa
TTITLE11=Come diceva il poeta
EXTD=
EXTT0=
EXTT1=
EXTT2=
EXTT3=
EXTT4=
EXTT5=
EXTT6=
EXTT7=
EXTT8=
EXTT9=
EXTT10=
EXTT11=
PLAYORDER=
